<svg version="1" xmlns="http://www.w3.org/2000/svg" width="933.333" height="933.333" viewBox="0 0 700.000000 700.000000"><path d="M345.9 52.7c-5.9 10.5-6.5 11.7-16.8 29-5.5 9.4-10.1 17.6-10.1 18.2 0 .5-.4 1.1-.8 1.3-.5.1-2.2 2.8-3.9 5.8-1.7 3-14.6 25.3-28.8 49.5-14.1 24.2-26.7 45.8-28 48-1.2 2.2-10 17.3-19.5 33.5s-18.1 31-19.1 32.7c-1 1.8-7.3 12.6-14 24-6.7 11.5-13.1 22.4-14.2 24.3-1.1 1.9-5.8 10-10.5 18-4.6 8-9.3 16-10.3 17.7-1 1.8-7.3 12.6-14 24-6.7 11.5-12.9 22.1-13.9 23.8-.9 1.6-6.4 11.1-12.2 21-5.8 9.9-11.5 19.6-12.6 21.5-1.1 1.9-22.3 38.4-47.2 81-24.9 42.6-46.4 79.5-47.8 82-2.8 5-9.7 16.7-11.2 19-.6.8-1.3 2.1-1.7 2.9-.3.8-2.6 4.6-4.9 8.5l-4.3 7.1 175 .3c96.2.1 253.6.1 349.8 0l174.9-.3-6.4-10.8c-3.5-6-6.4-11.3-6.4-11.8s-.4-.9-1-.9c-.5 0-1-.4-1-.9s-18.4-32.5-41-71.1c-22.5-38.7-41-70.7-41-71.1 0-.5-.4-.9-.9-.9s-1.1-.8-1.4-1.8c-.4-.9-1.7-3.6-3.1-5.9-3.2-5.4-44.3-75.7-46.6-79.7-.9-1.7-7.2-12.4-13.8-23.8-13.5-23-14.1-24-23-39.4-3.5-6-6.7-11.6-7.3-12.4-2.6-4.1-25.9-44.3-25.9-44.6 0-.3-1.2-2.3-2.7-4.7-1.5-2.3-3.5-5.6-4.4-7.2-.9-1.7-21.3-36.8-45.4-78-24.1-41.3-46.3-79.3-49.3-84.5-3-5.2-6.6-11.2-7.8-13.2-1.3-2.1-2.4-4-2.4-4.4 0-.3-1.3-2.6-3-5.1-1.6-2.4-3-4.6-3-4.8 0-.3-1.8-3.4-4-7s-4-6.8-4-7c0-1-4.5-7.5-5.2-7.5-.3 0-2.1 2.6-3.9 5.7z"/></svg>